<svg xmlns="http://www.w3.org/2000/svg" viewBox="0 0 1655.37 391.93"><defs><style>.cls-3{stroke-miterlimit:10}.cls-3,.cls-4{fill:#d90019}.cls-3{stroke:#d90019}</style></defs><g id="Layer_2" data-name="Layer 2"><g id="Layer_1-2" data-name="Layer 1"><path d="M332.17 316.15c-7.58 4.64-14.46 10.09-22.25 13.34-12.4 5.17-19.25 2.47-26.53-7.24-7.64 3.12-14.71 6.94-22.26 8.87-10.78 2.75-18.2-2.09-21.28-12.77a73.13 73.13 0 0 1-1.9-12.27c-.47-4.3-.4-8.66-1-12.92-.68-4.58-3-5.39-6.35-2.18a62.88 62.88 0 0 0-7.39 8.75c-3.73 5.11-6.83 10.73-10.92 15.5-3.27 3.82-7.18 7.64-11.61 9.8-7.84 3.83-15.24.19-17.64-8.19-1.31-4.57-1.54-9.48-2-14.26s-.34-9.67-1.13-14.41c-.83-5-4.65-6.15-8.32-2.6a33 33 0 0 0-5.57 7.59c-4.23 7.54-8 15.36-12.37 22.81-5.21 8.84-12.25 15.44-23.33 15.68-9.36.2-16.42-3.71-20.56-12.26-1.74-3.59-3.08-7.36-4.79-11-2.47-5.22-4.45-6.17-9.93-4.41a38.55 38.55 0 0 0-9.11 4c-24.4 15.76-43.15 36.45-54.1 63.62-1.83 4.4-2.29 9.4-3.14 14.09-.57 3.18-1.42 6.1-5.2 6.23-4 .14-5.47-2.5-5.78-6.1q-2.31-27.13-4.64-54.25c-.11-1.3-.19-2.6-.32-4.58-1.48 1.29-2.44 2.79-3.63 3-2.34.43-5.34 1-7.1 0-2.82-1.72-2.51-4.86-.3-7.36a79.41 79.41 0 0 1 6.59-6.83c3.21-2.85 4.4-6.12 4.37-10.5-.17-24.08 1.73-47.94 9.25-71a56.38 56.38 0 0 1 5.63-12.15c3.51-5.65 8.81-8.45 15.67-7.65 6.57.77 10.28 5 12.73 10.63 3.88 9 3.25 18.23 1.42 27.49-4.24 21.53-15.56 39.51-29.13 56.15-3.75 4.61-5.38 8.88-4.8 14.82 1 10.69 1.21 21.47 2.75 32.41.66-1 1.35-2 2-3.06 12.73-21.75 28.73-40.47 50.63-53.46A60.53 60.53 0 0 1 94 293.34c9.61-2.56 16 .75 20.32 9.8 1.42 3 2.47 6.17 3.69 9.26 3.63 9.21 13.95 11.73 21.09 4.66 3.47-3.44 6.06-7.9 8.56-12.18 3.27-5.59 5.85-11.6 9.15-17.18a45.32 45.32 0 0 1 7.77-10.29c9.07-8.39 22.08-4.89 25 7 1.73 7 1.39 14.53 2.35 21.77.41 3.14 1.75 6.16 2.67 9.23 2.6-1.84 5.76-3.23 7.7-5.62 4.4-5.41 8-11.47 12.31-17 3.25-4.16 6.56-8.59 10.77-11.62 9.12-6.56 19.06-2.75 21.49 8.12 1.33 6 1.59 12.2 1.78 18.34.4 12.9 4.6 16.38 18 10.48 8.22-3.61 13.75-10 17.2-18.54 5.81-14.35 15.88-24.12 31.74-26.48 7.76-1.15 14 1.88 18.44 8.44 2.41 3.58 3.35 7.21-.68 10.75 5.18.46 6.48 3.45 6.72 7.9a43.92 43.92 0 0 0 2.2 12.21c3.26 9.22 13 11.49 19.89 4.49 3.45-3.48 6-7.92 8.52-12.21 4-6.9 7.41-14.16 11.46-21 2.82-4.8 6.68-8.72 12.41-10.21 7.76-2 14.92 1.1 17.19 8.75 1.77 6 2.09 12.39 2.88 18.63.46 3.62.25 7.35.93 10.92.84 4.38 3 5.2 6.07 1.93 4.39-4.73 8.17-10 12.08-15.22 3-4 5.55-8.34 8.81-12.1a26.89 26.89 0 0 1 8.09-6.49c8.61-4.26 16.85-.67 19.06 8.62 1.41 5.93 1.6 12.18 2 18.32.35 5.78 1.29 11.19 5.3 15.73 2.35 2.67 2.27 5.57-.59 7.85s-5.29 1.15-7.48-1.18c-5.28-5.63-7.36-12.53-7.85-20-.34-5.15-.47-10.31-1.06-15.43-.18-1.61-1.25-4-2.4-4.37s-3.59.86-4.61 2.1c-4.22 5.13-8.14 10.52-12.13 15.84-3 4-5.54 8.41-9 11.93a26.3 26.3 0 0 1-9.89 6.33c-7.25 2.45-13.57-.83-15.76-8.14-1.41-4.71-1.68-9.79-2.21-14.73-.49-4.63-.35-9.33-1.07-13.91-.29-1.81-1.88-4.36-3.37-4.78s-4.23.78-5.59 2.11a31.26 31.26 0 0 0-5.16 7.29c-4.12 7.42-7.81 15.08-12.12 22.38S367 329 358.34 331c-10.22 2.33-19-1.39-24.1-10.54-.96-1.75-1.73-3.6-2.07-4.31zm-308.78-18.6C32.47 285.46 40 273.77 43.9 260.3c2.3-8 3.21-16.53 3.77-24.88.28-4.13-1.14-9.5-6.21-10.18s-6.79 4.27-8.18 8.09c-7.39 20.34-9.5 41.51-9.89 64.22zM331.56 293l-2.28 2.22c-1.21-2.38-2.33-4.81-3.65-7.12-2.06-3.6-5.3-4.84-9.32-4.32-12.1 1.57-25 17.1-24.37 29.25.31 5.75 2.89 8.26 8.62 7.67 10.91-1.11 18.71-7.37 24.68-16 2.49-3.7 4.24-7.79 6.32-11.7zm647.69 21.47c10-6.86 20-13.68 29.89-20.63 2.75-1.92 5.22-4.71 8.76-1.81 3.31 2.71 2 5.79.53 9-4.29 9.42-1.39 19.73 6.43 23.56 8.79 4.3 22.62.42 27.08-7.59 4.37-7.84 1.47-15.49-7-18.42-.94-.33-2.27-.3-2.79-.94-1.53-1.89-4-4.25-3.71-6s3.45-3.78 5.59-4.1c3.37-.5 6.94.45 10.44.59 6.32.25 12.65.6 19 .46 7.07-.16 7.82-1.42 7.2-8.3-1.24-13.75-.12-27.37 4.43-40.41a41.82 41.82 0 0 1 8.39-14.49c9.55-10.23 24-7 28.79 6.07 5.67 15.41 1.4 29.37-8.08 41.7-5.51 7.17-12.54 13.17-19.42 20.24 2.52 14.18 17.28 27.39 31.63 27.29a20.34 20.34 0 0 0 17.07-9c5.48-8 9.69-16.92 14.39-25.47A19.65 19.65 0 0 0 1159 283c1.09-3.27 3.23-5.25 6.76-4.3s4.22 3.6 3.77 7.06a139.23 139.23 0 0 0-1.4 16.4c-.07 6.14 1.83 11.62 8.11 14.24s12.69.89 17.6-4.69c7.24-8.22 9.81-18.34 11.12-28.88.16-1.32.15-2.67.35-4 .5-3.3 2.1-5.93 5.73-5.7s4.93 2.81 5 6.28c.2 7 .36 14 .91 21a83.13 83.13 0 0 0 2.12 12.78c2.22 9.27 10.53 9.47 15.42 5.57a56.61 56.61 0 0 0 12-13.14c13.07-20.15 20.68-42.75 28.31-65.3 1.07-3.15 2.08-6.32 2.93-9.54 1-3.59 2.7-6.51 6.83-5.54s4.36 4.19 4 7.95c-1.79 17.71-3.57 35.43-4.88 53.19-.46 6.24.43 12.58.71 19 .95-.14 1.42-.08 1.51-.23 7.61-13 19.71-18.79 34-21.11 3.67-.6 7-.12 7.82 4.06s-2.07 5.92-5.74 6.61c-2.12.4-4.27.72-6.37 1.22-11 2.6-18.76 9-22.69 19.73-1.31 3.59-2.18 7.41-4 10.73-1.18 2.16-3.72 5-5.62 5s-4.88-3.12-5.22-5.21c-2.07-12.94-3.57-26-5.16-39-.24-2 0-4-.78-6.33-.7 1.51-1.32 3.06-2.12 4.51-6.05 10.88-11.55 22.13-18.49 32.42-3.36 5-8.94 9.1-14.4 11.87-11 5.58-21.78 1-26.74-10.24-1-2.27-1.71-4.67-2.81-7.74-6.18 9.29-13.48 16.42-25.12 16.48-11.95.06-19.66-6-23.86-17-19.8 30.88-58.22 27.81-74.44-12.79l-21.23 2c2.94 9.2 2.23 18.15-4.3 25.94-5.42 6.46-12.74 9.59-20.91 10.53-18.31 2.09-29.42-7-32.17-26.21-5 3.06-9.91 6.18-14.94 9-10.06 5.69-20.67 10-32.19 11.67a19.29 19.29 0 0 1-2.47.38c-4 .06-9.13 1.65-10.17-4.23-1-5.65 3.83-5.85 7.76-6.84 10.84-2.73 18.2-14.33 16.31-25.33-1.49-8.69-9-13.24-18-10.77-8.38 2.32-14.85 7.74-20.2 14.11-7.25 8.65-13.69 18-20.44 27-.89 1.2-1.3 3.16-2.43 3.69-2.13 1-5.28 2.29-6.79 1.4s-2.86-5-2-6.5c9.55-17.09 20.19-33.42 36.82-44.67 6.49-4.39 13.69-7.1 21.64-6.3 16.71 1.69 26.5 18.2 21.15 35.36-.48 1.54-1.06 3.05-1.59 4.58zm111.93-33c3.7-3.27 6.5-5.36 8.84-7.87 8.62-9.27 15-19.61 13.67-33-.42-4.06-1.19-8.92-6-10-5.2-1.14-7.69 3.22-9.66 7.07-6.83 13.39-7.55 27.7-6.85 43.85zm402.37 33.81c-.87-6.39-1.82-12.77-2.6-19.17-1.77-14.53-10.23-24.07-24-26.18a43 43 0 0 0-13.93-.15c-10.42 1.89-20.73 4.39-31 7a4.77 4.77 0 0 0-3.51 6.65c1.19 3.2 3.84 3.9 7 3.26.65-.13 1.27-.4 1.91-.57 10.19-2.67 19.28 3.48 20.61 13.94 1.82 14.32-11.32 27.56-25.91 26.11-9.18-.91-14.56-6.64-14.5-15.86 0-3.12 1.35-6.26 1.16-9.33-.13-2.13-1.39-5.25-3-5.92s-4.42.84-6.39 2c-1.15.66-1.62 2.45-2.51 3.66-6 8.11-12.35 16.33-22.49 19-14.84 3.84-21.48-1.6-21.42-14.79 0-6.64.76-13.28 1.28-19.91.25-3.23-.63-5.78-4-6.4-3.61-.65-6 1.33-6.22 4.82-.53 9.25-1.6 18.61-.72 27.76 1.09 11.43 8.41 18.08 19.78 20 11.18 1.94 20.57-2.26 29-9.13 1.77-1.43 3.42-3 5.33-4.67 4.1 11.85 11.83 18.64 24 19.3 14.79.8 26.47-5.21 33.58-18.22 7.27-13.3 5-25.95-5.66-37.81 4.8-.23 8.89-.74 13-.56 11.3.52 16.08 5 17.77 16.28 1 6.41 1.48 12.92 2.91 19.23 2.47 10.89 13.77 14.4 21.81 6.55 3.82-3.73 6.47-8.78 9.2-13.49 3.75-6.47 6.87-13.3 10.67-19.74 1.24-2.11 3.74-3.48 5.66-5.19 1.27 2.18 2.92 4.24 3.72 6.58 1 3 1.31 6.17 1.94 9.26 1.19 5.86 1.87 11.88 3.71 17.53 3.86 11.87 12.83 16.57 25 13.87 9.05-2 16.65-6.85 23.39-12.86 8.45-7.53 16.31-15.71 24.61-23.42a55.57 55.57 0 0 1 9.91-7.5c5.47-3.15 10.57-2.21 14.95 2.36a25.66 25.66 0 0 1 7 20.65c-.8 9.34-8.65 13.25-17 8.75-3.36-1.8-6.48-2.46-8.61 1.27-2.35 4.1.43 6.58 3.65 8.43 12.31 7.08 27.47 1.27 31.46-12.33 3.15-10.73.64-20.86-5.19-30.05-7.57-11.94-21.06-15.38-33-7.69-6.75 4.35-12.22 10.66-18.42 15.9-9.11 7.71-17.67 16.4-27.73 22.61-13 8-20.33 3.93-21.73-10.69 0-.17 0-.33-.05-.5-1.34-7.52-1.93-15.28-4.2-22.51-3.69-11.73-16.63-14.28-24.89-5.15-3.18 3.52-5.48 7.9-7.82 12.09-3.57 6.38-6.69 13-10.3 19.38-1.31 2.31-3.5 4.12-5.29 6.16zm-744.79 4.32c-7.62 3.71-14.48 8-21.94 10.47-14.09 4.62-23.46-.08-29.56-13.46-.25-.54-.49-1.09-.54-1.22-5.47 4-10.6 8.25-16.21 11.71a34.52 34.52 0 0 1-10.74 3.8c-14.14 3.07-24.38-5.8-23.7-20.29.84-18 16.7-35.25 34.48-37.53a18.83 18.83 0 0 1 19 9.4c1.86 3.37 2.54 6.58-1.38 9.71 5.33.52 6.72 3.61 6.88 8.1a42.91 42.91 0 0 0 1.7 10.79c2.61 8.63 7.93 11.94 16.39 8.85 6.74-2.47 12.87-6.71 19.09-10.46 1-.59 1.55-2.85 1.36-4.2a147.67 147.67 0 0 1 4.55-61.79 58.6 58.6 0 0 1 7.61-15.57c4.13-6.29 10.4-9.42 18.08-8.06 7.52 1.33 11.11 7 13 13.67 3.81 13.23.38 25.7-4.61 37.9A120.36 120.36 0 0 1 759 307.89c-2.44 2.64-2.49 4.54-.41 7.25 4.09 5.34 11 7.73 18.46 4.76 4.82-1.9 9.16-5.25 13.33-8.45 3.06-2.35 5.86-4.45 9-1s.88 6.46-2 8.9a81.1 81.1 0 0 1-8.2 6.52c-14.91 9.87-29.9 7.33-40.42-6.23zm3.63-21.29a28.41 28.41 0 0 0 2.77-2.3c10.05-12.65 18-26.49 21.3-42.4a42.79 42.79 0 0 0-.14-17.17c-1.53-7.19-6.79-8.06-11.35-2.34a28.27 28.27 0 0 0-5.1 9c-2.21 7.29-4.45 14.69-5.39 22.2-1.28 10.53-1.39 21.12-2.09 33.06zM696 293.67c-1.86-1.89-3.95-3.48-5.34-5.53-2.58-3.82-6-5-10.29-4.22-10.71 2.05-22.37 14.95-23.4 25.84-.9 9.48 3.28 13 12.54 10.3 11-3.22 18.67-10.36 23.6-20.6 1.01-2.19 2.13-4.34 2.89-5.79zm-173.42 27.17h-3.49c-11.07-.39-17.27-8.52-14.74-19.34 3.38-14.46 18.51-21.8 32.49-15.66 3.6 1.58 7.07 2.15 8.94-2s-1-6.41-4.49-8c-18.85-8.57-41.21 1.65-46.9 21.45-4.83 16.82 4.12 31.39 21.16 33.94a52.71 52.71 0 0 0 12.45-.03c14.26-1.3 27.38-6.59 40.56-11.77 6.63-2.6 13.46-4.72 20.26-6.85 4.66-1.46 7.58.51 9.14 5.11 6.08 17.91 19.39 15.32 31 10.24 1.59-.7 3.12-4.73 2.5-6.4s-4-2.75-6.26-2.92-4.41 1.3-6.67 1.82c-6.1 1.43-8.06.37-10.45-5.37-5.21-12.53-10.68-16-23.63-12.61-11.35 3-22.21 7.85-33.41 11.49-9.27 3-18.73 5.43-28.1 8.12z" fill="#fff"/><path d="M1572.17 90.54c11 0 21.94-.15 32.9 0a26 26 0 0 1 25.51 26.22c0 19.89-14.29 37.38-33.94 40.7-13.23 2.23-26.68.88-40 .79-22.57-.15-39.89-17.07-41.09-39.69-.21-3.88-1.22-7.29-5.47-7.16s-5 3.73-4.88 7.55c.71 23.83 19 45 42.43 48.7 13.61 2.16 27.37.9 41 .9a51.8 51.8 0 0 0 48.85-33.77c12.4-32.65-10.85-56.05-37-54.77-19.66 1-39.4.28-59.11.15A25.91 25.91 0 0 1 1515.5 56c-1.5-20.55 13.25-40.07 33.5-43.66 13.23-2.34 26.67-.88 40-.9 17.16 0 32.21 10.64 38.61 26.65a44.46 44.46 0 0 1 3 15c.12 3.18 2 5.34 5.16 5.24s4.88-2.23 5-5.43a29.83 29.83 0 0 0 0-3.08c-1.19-23.25-19.5-44-42.43-47.76-13.1-2.16-26.34-.9-39.5-.94-28.21-.08-49.3 18.37-53.37 46.22-3.41 23.33 13.36 43 36.87 43.16 9.94.07 19.88 0 29.81 0zM474.86 53.08a41.7 41.7 0 0 1 34.57-40.82c13.4-2.26 27-.89 40.53-.8 18.51.13 35.19 13.66 39.75 31.57a56.69 56.69 0 0 1 1.43 11.19c.14 2.78 1.9 4.3 4.73 4.41a4.75 4.75 0 0 0 5.2-4 18.24 18.24 0 0 0 .13-5.11c-1.42-23-20.08-44-42.92-47.42a186.37 186.37 0 0 0-47.17-.46c-27.9 3-46.45 24.9-46.54 52.93-.07 21.08-.24 42.16.09 63.23.38 24.47 19 45.93 43.12 49.88 13.93 2.28 28.05.94 42.08.87 24.3-.11 46.49-19.21 50.51-43.19 2.14-12.75.6-25.65.91-38.48.15-6.32-1.41-7.67-8-7.68h-51.93c-2.57 0-5.15-.1-7.71.05-3.16.19-5.26 1.93-5.22 5.17s2.22 4.82 5.37 5c1.19.08 2.4 0 3.6 0 16.45 0 32.9.09 49.35-.07 3.29 0 4.44.79 4.33 4.24-.26 7.87.06 15.77-.15 23.65a42.48 42.48 0 0 1-41.34 41c-11 .19-21.94.17-32.9 0a42.29 42.29 0 0 1-41.86-42c-.12-10.45 0-20.91 0-31.36.01-10.55-.1-21.18.04-31.8zm313.62 31.28c0 11.14-.2 22.28 0 33.42.53 24.48 19 46 43.11 49.91 14.1 2.3 28.4 1 42.59.87 24-.2 46.05-19.39 50-43.14 2.16-12.92.6-26 .91-39 .13-5.63-1.63-7.19-7.41-7.2h-54a60 60 0 0 0-6.68.1c-2.9.33-4.77 2.09-4.76 5.09s1.95 4.64 4.84 5a32 32 0 0 0 4.11.08c16.45 0 32.9.08 49.35-.06 3.24 0 4.49.7 4.37 4.2-.27 7.87.05 15.77-.15 23.65-.58 22.28-19.06 40.68-41.3 41.07-11 .19-21.94.17-32.9 0a42.22 42.22 0 0 1-41.88-42q-.24-31.62 0-63.23a41.88 41.88 0 0 1 27.12-38.84c10.45-4.06 51.12-4.43 61.45-.17 17.14 7.06 26.49 19.92 27.54 38.55.2 3.59 1.35 6.14 5.37 5.94 3.61-.18 4.92-2.63 4.94-6 0-1 0-2.06-.08-3.08-1.41-23-20.08-44-42.9-47.45C866.57-.22 850.64 0 835 1.64c-25.11 2.56-43.43 20.94-46 45.74-1.29 12.2-.22 24.65-.22 37zm-544.81 32.42c18 9 29.41 23.12 33.29 43 .73 3.76 1.24 7.72-3.63 8.6-4.61.83-5.92-2.71-6.78-6.56-5.54-24.76-25.11-40.41-50.47-40.46-15.07 0-30.15.11-45.22-.09-3.54 0-4.67.82-4.6 4.5.24 11.64 0 23.3.11 34.94 0 3.93-.62 7.79-5.33 7.71-4.36-.07-5-3.79-5-7.53V8.77c0-6.19 1.61-7.72 8-7.73 18 0 36-.07 54 0a61 61 0 0 1 58.23 44.38c7.12 25.84-4.24 53.78-27.52 67.85-1.7 1.07-3.84 1.53-5.08 3.51zm-77.32-55.67c0 15.25.09 30.5-.07 45.74 0 3.32.85 4.35 4.26 4.31 16.62-.19 33.24.19 49.85-.2 26.22-.63 47.74-23.21 47.75-49.6s-21.51-49.18-47.55-49.87c-16.78-.45-33.58 0-50.36-.22-3.3 0-4 1.07-3.94 4.1.13 15.25.06 30.5.06 45.74zM1353 112.81c0-14.56-.06-29.13 0-43.69.19-38 30.22-68.09 67.81-68.05a68.1 68.1 0 0 1 67.89 68.12c.11 30.32 0 60.65 0 91v2.57c-.22 3.28-1.67 5.83-5.2 5.79s-5-2.58-5-5.91c0-11.82-.25-23.65.09-35.46.13-4.63-1.07-5.93-5.83-5.9q-51.91.33-103.82 0c-4.95 0-5.84 1.56-5.72 6 .29 11.3.07 22.61.11 33.92 0 3.75-.68 7.34-5.17 7.32s-5.15-3.61-5.14-7.36c-.02-16.16-.02-32.25-.02-48.35zm67.79-1.72h53.46c1.85 0 4.33.88 4.22-2.65-.52-16.42 1.42-32.94-1-49.27-4.05-26.94-28.81-47.7-56.24-47.8-27.79-.1-52.71 20.53-56.89 47.65-2.44 15.81-.42 31.82-1.09 47.72-.16 3.76 1.18 4.48 4.64 4.44 17.57-.18 35.21-.09 52.86-.09zM341.18 29.38l93.36 132.2c1.28 1.81 2.61 3.6 4.06 5.28a4.64 4.64 0 0 0 5.56 1.5 4.86 4.86 0 0 0 2.83-4.55c.08-1.37.06-2.74.06-4.11V10.11A35.58 35.58 0 0 0 447 6c-.34-2.91-1.9-4.85-5-4.84s-4.7 1.89-5.15 4.74a29.92 29.92 0 0 0-.1 4.62v128.52c0 1.76.52 3.65-.67 5.67-.94-1.23-1.68-2.13-2.36-3.09q-36-50.7-71.93-101.42c-8.41-11.88-16.71-23.84-25.14-35.71-1.34-1.89-2.82-4.39-5.74-3.12a6.28 6.28 0 0 0-4.15 6.45V159.99a25.29 25.29 0 0 0 .08 3.59c.41 2.84 1.94 4.87 4.94 5s4.63-2 5.13-4.74a26.25 26.25 0 0 0 .12-4.62V23.87c1.97 2.63 3.11 4.04 4.15 5.51zM757.7 141.74l-95-134.21a50.26 50.26 0 0 0-3-4.14c-2.82-3.23-5.29-3-7.9.47-1.42 1.87-1.11 3.88-1.11 5.89v150.11a20.54 20.54 0 0 0 .13 4.1c.58 2.79 2.22 4.73 5.27 4.6 2.79-.12 4.25-2.06 4.73-4.62a25.36 25.36 0 0 0 .14-4.61v-128c0-1-.06-2.06 0-3.08s0-2.53.51-2.75c1.17-.53 1.45 1 2 1.69.77.91 1.41 1.94 2.1 2.92Q712 95.8 758.38 161.48c1.28 1.81 2.6 3.61 4 5.3a4.72 4.72 0 0 0 5.54 1.64 4.81 4.81 0 0 0 2.93-4.48c.1-1.19.07-2.4.07-3.6V9.2a20.63 20.63 0 0 0-.11-3.59c-.47-2.64-2-4.4-4.8-4.47s-4.46 1.64-5.17 4.14a15.49 15.49 0 0 0-.2 4.09v136.19c-1.55-2.03-2.28-2.9-2.94-3.82zm330-56.73V9.48c0-7.06 1.33-8.4 8.35-8.4 17.64 0 35.28-.07 52.92 0a68.45 68.45 0 0 1 68.21 68.39c0 14 1.14 28.1-.88 42.07-4.49 31.07-32.79 56.4-64.14 57-19.18.39-38.36.12-57.55.09-5.55 0-6.9-1.42-6.91-7.08q-.06-38.26-.03-76.55zM1098 85c0 23 .07 45.92-.08 68.87 0 3.5.76 4.67 4.47 4.62 16.27-.22 32.55.12 48.83-.17 26.58-.47 50.68-21.46 54.81-47.67 2.17-13.78.9-27.71.89-41.56a57.86 57.86 0 0 0-57.47-57.71c-15.59-.12-31.18.12-46.77-.12-3.93-.06-4.79 1.1-4.77 4.87.09 22.94.09 45.87.09 68.87zm135.73 75.28c0 7.28 1.09 8.4 8.23 8.4h88.38a18.73 18.73 0 0 0 4.09-.17 4.9 4.9 0 0 0 4.19-5.56c-.18-2.89-1.92-4.27-4.66-4.48-1.53-.12-3.08-.07-4.62-.07-26.89 0-53.78-.09-80.68.1-3.93 0-4.8-1.1-4.76-4.86q.29-29.29 0-58.58c0-3.52.79-4.65 4.49-4.61 16.61.2 33.23.09 49.84.09h21.07c3.53 0 5.59-1.93 5.53-5.36-.05-3.23-2.19-4.84-5.43-4.89h-4.11c-22.27 0-44.54-.08-66.8.08-3.55 0-4.62-.84-4.59-4.5q.28-30.06 0-60.12c0-3.77 1.23-4.45 4.67-4.43 19.35.16 38.71.08 58.07.07h26.21c3.34 0 5.68-1.38 5.78-5.07s-2.14-5.13-5.56-5.18H1241.59c-6.94 0-7.88 1-7.88 8.12V84.8q0 37.77-.02 75.47zM307.21 9.82a18.42 18.42 0 0 0-.22-4.6 4.92 4.92 0 0 0-4.7-4.06c-2.77-.09-4.47 1.63-5.16 4.15a15.81 15.81 0 0 0-.19 4.09v151.08a17.46 17.46 0 0 0 .21 4.09 4.84 4.84 0 0 0 4.71 4c2.79.11 4.52-1.53 5.14-4.11a19.9 19.9 0 0 0 .2-4.6v-75q0-37.49.01-75.04zm323.9 0a18.35 18.35 0 0 0-.23-4.6 4.92 4.92 0 0 0-4.7-4.06c-2.77-.08-4.47 1.63-5.15 4.15a15.87 15.87 0 0 0-.19 4.09v151.08a20.94 20.94 0 0 0 .11 3.59c.47 2.66 2.09 4.39 4.82 4.49 3 .11 4.75-1.72 5.23-4.6a28.69 28.69 0 0 0 .11-4.62V84.83q.01-37.5 0-75.01z" stroke-miterlimit="10" stroke="#fff" stroke-width=".75" fill="#fff"/><path class="cls-3" d="M5.94 84.76V9.21c0-6.87 1.25-8.14 8-8.14h74.52c16.29 0 29.92 9.34 35.5 24.06 5.35 14.1 1.47 29.23-10.68 40-2.78 2.46-2.33 3.07.57 4.68C135.78 82 146.16 105.62 140 129c-6.25 23.85-26.7 39.6-51.73 39.68-24.84.08-49.68 0-74.52 0-6.4 0-7.84-1.44-7.84-7.84q.01-38.05.03-76.08zm10.28 31.32c0 12.68.1 25.36-.07 38 0 3.26.74 4.37 4.21 4.35 23.3-.16 46.6.09 69.9-.15 22.62-.24 41.1-19.42 41.11-42.21 0-22.44-18.45-41.67-40.81-42-23.47-.29-46.95 0-70.42-.16-3.21 0-4 .92-4 4 .18 12.81.08 25.49.08 38.17zM56 11.35c-11.64 0-23.28.14-34.91-.08-3.65-.07-5 .63-4.94 4.68.27 14.37.25 28.75 0 43.13-.06 3.86 1 4.84 4.81 4.81 22.59-.19 45.18 0 67.77-.11 15.35 0 27.22-11.52 27.24-26.14s-11.83-26.17-27.14-26.28c-10.96-.07-21.91-.01-32.83-.01zM1068.13 10.36a26.9 26.9 0 0 0-.12-4.61c-.46-2.61-2.06-4.46-4.78-4.56-3-.1-4.73 1.76-5.26 4.61a22.64 22.64 0 0 0-.11 4.1v150.05a21 21 0 0 0 .21 4.6 4.81 4.81 0 0 0 4.69 4c2.79.13 4.53-1.51 5.16-4.08a19.65 19.65 0 0 0 .21-4.6V85.36v-75z"/><path class="cls-4" d="M614 256.64c-.09-3.69-4.93-8.07-8.88-7.85-3.28.18-5.14 1.93-5.16 5.37 0 4.25 3.27 7.94 7.16 8s6.88-2.36 6.88-5.52zM105.31 250c-2.74-.82-5.46 3.62-5.44 8.1 0 3.3 1.42 5.46 4.89 5.65 3.13.17 5.52-3.49 5.47-9.94-1.02-.81-2.73-3.11-4.92-3.81zM1359.73 239.36c-3.37.11-5.21 2.12-5 5.45.28 3.64.87 7.85 5.35 8.17 1.83.13 3.86-2.72 4.88-3.5.17-6.39-2.2-10.22-5.23-10.12z"/></g></g></svg>